<?xml version="1.0" encoding="utf-8"?>
<!-- Generator: Adobe Illustrator 16.0.0, SVG Export Plug-In . SVG Version: 6.00 Build 0)  -->
<!DOCTYPE svg PUBLIC "-//W3C//DTD SVG 1.1//EN" "http://www.w3.org/Graphics/SVG/1.1/DTD/svg11.dtd">
<svg version="1.1" id="Capa_1" xmlns="http://www.w3.org/2000/svg" xmlns:xlink="http://www.w3.org/1999/xlink" x="0px" y="0px"
	 width="626px" height="158px" viewBox="72.5 50.5 626 158" enable-background="new 72.5 50.5 626 158" xml:space="preserve">
<g>
	<path fill="#4DAE51" d="M564.509,130.179c-0.04,40.75-33.117,73.793-73.776,73.704c-40.455-0.09-73.199-33.396-73.112-74.37
		c0.086-40.451,33.146-73.479,73.528-73.454C531.686,56.083,564.549,89.285,564.509,130.179z M504.899,103.91
		c19.581,13.169,16.969,33.785,8.505,44.014c-10.407,12.577-29.316,14.189-41.409,3.309c-5.974-5.375-9.221-12.123-9.57-20.17
		c-0.507-11.681,5.005-20.291,14.479-26.907c-1.042-1.727-1.842-3.152-2.742-4.513c-0.878-1.327-1.857-2.586-2.769-3.841
		c-16.26,10.017-23.275,28.086-17.997,45.526c5.291,17.483,21.128,28.569,39.757,27.83c17.294-0.687,32.447-13.49,36.18-30.568
		c3.71-16.986-4.21-35.02-19.087-42.71C508.563,98.408,506.843,100.99,504.899,103.91z M495.496,133.868c0-16.582,0-32.661,0-48.733
		c-3.288,0-6.325,0-9.212,0c0,16.492,0,32.552,0,48.733C489.451,133.868,492.245,133.868,495.496,133.868z"/>
	<path fill="#4DAE51" d="M605.817,201.184c-10.156,0-19.751,0-29.705,0c0-46.584,0-92.97,0-140.14
		c7.744,0,15.653-0.171,23.544,0.158c1.409,0.059,2.888,2.048,4.072,3.378c19.546,21.951,36.107,46.111,52.206,70.609
		c1.448,2.205,2.903,4.403,5.212,7.903c0-28.151,0-54.804,0-81.784c10.285,0,20.021,0,30.076,0c0,46.521,0,93.066,0,140.111
		c-7.864,0-15.67,0.189-23.446-0.177c-1.378-0.065-3.036-2.235-3.906-3.802c-14.665-26.355-30.478-51.969-48.843-75.941
		c-2.531-3.304-5.166-6.53-7.778-9.771c-0.176-0.218-0.572-0.257-1.433-0.615C605.817,141.205,605.817,171.063,605.817,201.184z"/>
	<path fill="#010101" d="M183.602,61.183c10.154,0,19.926,0,30.293,0c0,1.753,0,3.513,0,5.273c0,25.319-0.128,50.64,0.096,75.956
		c0.052,5.929,0.61,12.029,2.14,17.729c3.193,11.896,11.912,17.489,24.417,16.678c11.725-0.762,19.896-7.945,21.913-19.537
		c0.625-3.586,0.973-7.268,0.983-10.906c0.081-26.651,0.044-53.303,0.044-79.954c0-1.639,0-3.276,0-5.178
		c10.174,0,20.092,0,30.184,0c0.072,1.156,0.206,2.303,0.204,3.449c-0.051,29.147,0.015,58.296-0.216,87.441
		c-0.25,31.583-20.483,51.786-52.113,51.809c-7.741,0.006-15.759-0.534-23.17-2.571c-19.78-5.438-32.669-21.263-33.712-42.24
		c-1.091-21.929-0.813-43.928-1.043-65.897C183.509,82.617,183.602,71.999,183.602,61.183z"/>
	<path fill="#010101" d="M351.782,174.9c23.105,0,45.254,0,67.743,0c0,8.709,0,17.255,0,26.08c-34.853,0-69.76,0-105.033,0
		c-0.222-9.844-0.885-19.207,4.923-28.569c16.854-27.169,34.19-53.961,53.842-79.207c1.194-1.535,2.362-3.092,4.049-5.3
		c-20.314,0-39.854,0-59.704,0c0-9.059,0-17.658,0-26.594c33.131,0,66.352,0,100.246,0c0,6.898,0.15,13.978-0.132,21.039
		c-0.054,1.36-1.713,2.729-2.782,3.965c-22.707,26.245-42.665,54.48-60.817,84.021C353.37,171.55,352.809,172.878,351.782,174.9z"/>
	<path fill="#010101" d="M108.544,173.934c20.204,0,39.658,0,59.423,0c0,8.993,0,17.754,0,26.92c-29.547,0-59.234,0-89.19,0
		c0-46.403,0-92.921,0-139.656c9.851,0,19.604,0,29.768,0C108.544,98.59,108.544,135.959,108.544,173.934z"/>
	<path fill="#FEFEFE" d="M504.899,103.91c1.942-2.92,3.663-5.502,5.347-8.031c14.877,7.69,22.797,25.724,19.087,42.71
		c-3.731,17.078-18.886,29.882-36.18,30.568c-18.63,0.739-34.466-10.347-39.757-27.83c-5.278-17.44,1.737-35.51,17.997-45.526
		c0.91,1.255,1.891,2.514,2.769,3.841c0.899,1.36,1.7,2.786,2.742,4.513c-9.476,6.617-14.986,15.228-14.479,26.907
		c0.351,8.047,3.599,14.795,9.57,20.17c12.093,10.882,31.002,9.27,41.409-3.309C521.868,137.695,524.481,117.079,504.899,103.91z"/>
	<path fill="#FEFEFE" d="M495.496,133.868c-3.251,0-6.045,0-9.212,0c0-16.182,0-32.241,0-48.733c2.887,0,5.924,0,9.212,0
		C495.496,101.207,495.496,117.286,495.496,133.868z"/>
</g>
</svg>
